<svg id="Layer_1" data-name="Layer 1" xmlns="http://www.w3.org/2000/svg" viewBox="0 0 525 494"><defs><style>.cls-1{fill:none;}</style></defs><g id="Collections_Preview_icon_" data-name="Collections Preview icon "><polygon class="cls-1" points="406.17 394.08 483.86 394.08 483.86 42.3 121.06 42.3 121.05 99.7 406.17 99.7 406.17 394.08"/><polygon class="cls-1" points="121.03 42.3 121.03 21.82 121.02 42.3 121.03 42.3"/><path class="cls-1" d="M108.23,3.39A41,41,0,0,0,80.65,35.45,41.1,41.1,0,0,1,108.23,3.39Z"/><path class="cls-1" d="M496,3.18a41,41,0,0,1,28.8,39.12V394.08A41.07,41.07,0,0,1,496,433.21a41,41,0,0,0,28.79-39.14V42.31A41,41,0,0,0,496,3.18Z"/><path d="M80.06,42.31a40.8,40.8,0,0,1,.59-6.86,40.77,40.77,0,0,0-.59,6.85V99.7h0Z"/><path d="M406.17,435.05h77.69A40.86,40.86,0,0,0,496,433.21a41.13,41.13,0,0,1-12.18,1.84Z"/><path d="M483.86,1.34A40.74,40.74,0,0,1,496,3.18a40.8,40.8,0,0,0-12.17-1.85H121a40.78,40.78,0,0,0-12.81,2.06,41.06,41.06,0,0,1,12.81-2Z"/><path d="M524.83,394.08V42.3a40.93,40.93,0,0,0-41-41H121a41,41,0,0,0-41,41V99.7h41V42.3H483.86V394.08H406.17v41h77.69a40.92,40.92,0,0,0,41-41ZM121,42.3h0l0-20.48Z"/><path d="M364.06,87.92H51.73A51.62,51.62,0,0,0,.09,139.28V442.54a51.6,51.6,0,0,0,51.62,51.3H364.06a51.61,51.61,0,0,0,51.62-51.36V139.22A51.6,51.6,0,0,0,364.06,87.92ZM284.81,226.53,179.13,327,149.6,296.81a21.13,21.13,0,0,0-28.68-1.32L42.05,362.73V139.34a9.67,9.67,0,0,1,9.64-9.59H364.1a9.62,9.62,0,0,1,9.62,9.53V284.09l-59.88-57.54A20.93,20.93,0,0,0,284.81,226.53ZM42.05,417.81,133.26,340,242.52,452H51.69a9.67,9.67,0,0,1-9.64-9.52ZM208.4,357.05l90.76-86.49,74.48,71.65V442.52a9.62,9.62,0,0,1-2.84,6.78,9.51,9.51,0,0,1-6.72,2.78h-63Z"/><path d="M124.56,148.4a59,59,0,1,0,59,59A59.06,59.06,0,0,0,124.56,148.4Zm20.94,59a20.95,20.95,0,1,1-35.75-14.87,20.67,20.67,0,0,1,14.79-6.08h0A21,21,0,0,1,145.5,207.44Z"/></g></svg>