<svg id="Layer_1" data-name="Layer 1" xmlns="http://www.w3.org/2000/svg" viewBox="0 0 540 512"><defs><style>.cls-1{fill:none;}.cls-2{fill:#fff;}</style></defs><g id="Rectangle_150" data-name="Rectangle 150"><rect class="cls-1" x="97.92" width="441.36" height="441.36" rx="81.92"/><path d="M457.37,441.36H179.84a82,82,0,0,1-81.92-81.92V81.92A82,82,0,0,1,179.84,0H457.37a82,82,0,0,1,81.91,81.92V359.44A82,82,0,0,1,457.37,441.36ZM179.84,41a41,41,0,0,0-41,41V359.44a41,41,0,0,0,41,41H457.37a41,41,0,0,0,41-41V81.92a41,41,0,0,0-41-41Z"/></g><g id="Rectangle_149" data-name="Rectangle 149"><rect class="cls-2" x="0.81" y="70.64" width="441.36" height="441.36" rx="81.92"/><path d="M360.25,512H82.73A82,82,0,0,1,.81,430.08V152.55A82,82,0,0,1,82.73,70.64H360.25a82,82,0,0,1,81.92,81.91V430.08A82,82,0,0,1,360.25,512ZM82.73,111.59a41,41,0,0,0-41,41V430.08a41,41,0,0,0,41,41H360.25a41,41,0,0,0,41-41V152.55a41,41,0,0,0-41-41Z"/></g><g id="Group_141" data-name="Group 141"><g id="Path_161" data-name="Path 161"><path d="M225.66,322.38,137.4,233.67a18.43,18.43,0,1,1,26.12-26l62.14,62.48,62.22-62.48a18.42,18.42,0,1,1,26.11,26Z"/></g><g id="Path_162" data-name="Path 162"><path d="M150.46,387.3a18.44,18.44,0,0,1-13.06-31.44l88.34-88.69L314,355.86a18.42,18.42,0,1,1-26.11,26L225.74,319.4l-62.22,62.46A18.39,18.39,0,0,1,150.46,387.3Z"/></g></g></svg>