<svg id="Layer_1" data-name="Layer 1" xmlns="http://www.w3.org/2000/svg" width="540" height="512" viewBox="0 0 540 512"><defs><style>.cls-1{fill:none;}</style></defs><g id="Rectangle_150" data-name="Rectangle 150"><rect class="cls-1" x="97.9249" y="0.0038" width="441.364" height="441.364" rx="81.9161"/></g><g id="Rectangle_149" data-name="Rectangle 149"><path d="M360.2524,511.9957H82.7256A81.997,81.997,0,0,1,.81,430.08V152.5528A81.997,81.997,0,0,1,82.7256,70.6367H360.2524a81.997,81.997,0,0,1,81.9161,81.9161V430.08A81.997,81.997,0,0,1,360.2524,511.9957ZM82.7256,111.5947a41.0115,41.0115,0,0,0-40.9581,40.9581V430.08a41.0115,41.0115,0,0,0,40.9581,40.9581H360.2524A41.0115,41.0115,0,0,0,401.2105,430.08V152.5528a41.0114,41.0114,0,0,0-40.9581-40.9581Z"/></g><g id="Group_141" data-name="Group 141"><g id="Path_161" data-name="Path 161"><path d="M225.6588,322.3847,137.403,233.6689A18.4264,18.4264,0,0,1,163.5218,207.67l62.137,62.477,62.2171-62.477a18.4263,18.4263,0,1,1,26.1187,25.9987Z"/></g><g id="Path_162" data-name="Path 162"><path d="M150.4624,387.3016a18.4392,18.4392,0,0,1-13.0594-31.4385l88.3358-88.6958,88.2758,88.6958a18.4264,18.4264,0,1,1-26.1187,25.9988l-62.1571-62.457-62.217,62.457A18.3871,18.3871,0,0,1,150.4624,387.3016Z"/></g></g><path d="M457.2656.2144H179.7393A82.0187,82.0187,0,0,0,98.6729,70.4212h41.8237a41.0334,41.0334,0,0,1,39.2427-29.2488H457.2656A41.0114,41.0114,0,0,1,498.2237,82.13V359.6568a41.0113,41.0113,0,0,1-40.9581,40.958H442.4732v29.2537a82.5409,82.5409,0,0,1-.8457,11.7043h15.6381a81.9971,81.9971,0,0,0,81.9161-81.916V82.13A81.9971,81.9971,0,0,0,457.2656.2144Z"/></svg>