<svg id="Layer_1" data-name="Layer 1" xmlns="http://www.w3.org/2000/svg" viewBox="0 0 511 502"><path d="M449.82-.35H61.45A61.34,61.34,0,0,0,.13,60.87V440.58A61.31,61.31,0,0,0,61.45,501.8H449.82A61.35,61.35,0,0,0,511,440.58V60.87A61.35,61.35,0,0,0,449.82-.35Zm15,249.63-79.56-77a23.07,23.07,0,0,0-32,0l-133.51,128-38.79-40a23.18,23.18,0,0,0-31.63-1.44L46.32,347.19V60.89a15.06,15.06,0,0,1,15-15H449.78a15,15,0,0,1,15,15ZM61.45,33.58h0ZM46.32,408.11,162.92,308l143,147.55H61.41a15.06,15.06,0,0,1-15.09-15Zm322.85-187L464.8,313.7v127a15.05,15.05,0,0,1-13.26,14.89H370.27L251.89,333.53Z"/><path d="M130.67,67.43a59,59,0,1,0,59,59A59.07,59.07,0,0,0,130.67,67.43Zm20.93,59a21,21,0,1,1-22.23-20.94h1.28A21,21,0,0,1,151.6,126.45Z"/></svg>