<svg id="Layer_1" data-name="Layer 1" xmlns="http://www.w3.org/2000/svg" viewBox="0 0 512 512"><defs><style>.cls-1{fill:none;}.cls-2{isolation:isolate;}</style></defs><g id="Large_Image_Grid_button_" data-name="Large Image Grid button "><g id="Rectangle_103" data-name="Rectangle 103"><rect class="cls-1" x="1.37" y="-0.16" width="512.16" height="512.16" rx="81.95"/><path d="M1.36,430.05V81.78a82.06,82.06,0,0,1,82-81.94H431.58a82,82,0,0,1,81.94,81.94V430.05A82,82,0,0,1,431.58,512H83.31A82.06,82.06,0,0,1,1.36,430.05Zm463-348.27A32.82,32.82,0,0,0,431.58,49H83.31A32.81,32.81,0,0,0,50.54,81.78V430.05a32.81,32.81,0,0,0,32.77,32.77H431.58a32.81,32.81,0,0,0,32.77-32.77Z"/></g><g id="L" class="cls-2"><g class="cls-2"><path d="M177.44,144.16h36.89V355.91H329.79v33.17H177.44Z"/></g></g></g></svg>