<svg id="Layer_1" data-name="Layer 1" xmlns="http://www.w3.org/2000/svg" viewBox="0 0 512 512"><defs><style>.cls-1{fill:none;}.cls-2{isolation:isolate;}</style></defs><g id="Medium_Image_Grid_button_" data-name="Medium Image Grid button "><g id="Path_119" data-name="Path 119"><path class="cls-1" d="M82.27-.25H430.38a81.9,81.9,0,0,1,81.91,81.9V429.76a81.91,81.91,0,0,1-81.91,81.91H82.27A81.91,81.91,0,0,1,.36,429.76V81.65A81.9,81.9,0,0,1,82.27-.25Z"/><path d="M82.27,48.89A32.8,32.8,0,0,0,49.51,81.65V429.76a32.8,32.8,0,0,0,32.76,32.77H430.38a32.8,32.8,0,0,0,32.76-32.77V81.65a32.8,32.8,0,0,0-32.76-32.76H82.27m0-49.14H430.38a81.9,81.9,0,0,1,81.91,81.9V429.76a81.91,81.91,0,0,1-81.91,81.91H82.27A81.91,81.91,0,0,1,.36,429.76V81.65A81.9,81.9,0,0,1,82.27-.25Z"/></g><g id="M" class="cls-2"><g class="cls-2"><path d="M129.19,144h62.67l63.06,193.93L322,144h60.45V388.8H346.36v-212l-75.95,212H238L165.33,179V388.8H129.19Z"/></g></g></g></svg>