<svg id="Layer_1" data-name="Layer 1" xmlns="http://www.w3.org/2000/svg" viewBox="0 0 512 512"><defs><style>.cls-1{fill:none;}</style></defs><g id="Select_Images_button_" data-name="Select Images button "><g id="Group_140" data-name="Group 140"><g id="Path_163" data-name="Path 163"><path d="M226.55,343.81a14.24,14.24,0,0,1-9.86-4.08L165.79,288a13.94,13.94,0,0,1,20.12-19.29l39,40.23L326.73,173.48a14.08,14.08,0,1,1,22.86,16.46l-.28.38L238,338.12a14.59,14.59,0,0,1-10.2,5.76Z"/><path d="M157,278.52a19,19,0,0,1,32.49-13.42l34.9,36L322.64,170.4a19.2,19.2,0,0,1,31.1,22.52L242.13,341.19A19.71,19.71,0,0,1,228.34,349l-1.85,0a19.29,19.29,0,0,1-13.38-5.56l-51-51.77A19.16,19.16,0,0,1,157,278.52ZM347.14,181.7a8.21,8.21,0,0,0-.12-1.41,9,9,0,0,0-16.14-3.83L225.41,316.79l-43.18-44.53a8.8,8.8,0,0,0-12.19-.18,8.68,8.68,0,0,0-2.83,6.12,8.3,8.3,0,0,0,2.33,6.34l50.79,51.61a9,9,0,0,0,6.28,2.57l1.47.06a9.5,9.5,0,0,0,5.88-3.73L345.23,187.24A9.23,9.23,0,0,0,347.14,181.7Z"/></g><g id="Rectangle_112" data-name="Rectangle 112"><rect class="cls-1" x="1.72" y="0.69" width="510.29" height="510.29" rx="81.65"/><path d="M1.72,429.33v-347A81.76,81.76,0,0,1,83.37.69h347A81.76,81.76,0,0,1,512,82.33v347A81.76,81.76,0,0,1,430.36,511h-347A81.76,81.76,0,0,1,1.72,429.33ZM463,82.33a32.7,32.7,0,0,0-32.66-32.65h-347A32.7,32.7,0,0,0,50.71,82.33v347A32.7,32.7,0,0,0,83.37,462h347A32.7,32.7,0,0,0,463,429.33Z"/></g></g></g></svg>