<svg id="Layer_1" data-name="Layer 1" xmlns="http://www.w3.org/2000/svg" viewBox="0 0 758 512"><g id="Deselected_Annotation_Label_icon_2" data-name="Deselected Annotation Label icon 2"><path id="Path_149" data-name="Path 149" d="M46.49,511H490a46.87,46.87,0,0,0,30.31-11.25l206.5-177a88.46,88.46,0,0,0,0-134.32L520.37,11.39A46.88,46.88,0,0,0,490.05.15H46.49A46.85,46.85,0,0,0-.36,47h0V464.3A46.86,46.86,0,0,0,46.49,511Zm5-459H488.15l205.1,175.77a36.76,36.76,0,0,1,3.94,51.78,38.36,38.36,0,0,1-3.94,4l-205,175.75H51.48Z"/></g></svg>