<svg id="search-filter" data-name="Search Filter" xmlns="http://www.w3.org/2000/svg" width="423" height="512" viewBox="0 0 423 512"><defs><style>.cls-6{isolation:isolate;}</style></defs><g id="Sort_by_Alpha" data-name="Sort by Alpha"><g id="Sort_by_Alpha-2" data-name="Sort by Alpha-2"><g id="Group_139" data-name="Group 139"><g id="AZ" class="cls-6"><g class="cls-6"><path d="M88.2821,139.7887h51.2234L225.012,374.3853H177.3338l-22.2677-62.53H67.0876l-22.6127,62.53H-.0413Zm54.4045,134.9668L111.9488,187.831,80.1569,274.7555Z"/><path d="M240.4959,339.7573,368.3915,177.5786H243.677v-37.79H422.8152v34.6088L293.1374,336.5762H423.16v37.8091H240.4959Z"/></g></g><g id="Polygon_4" data-name="Polygon 4"><path d="M268.0672,70.2236H173.95l47.0587-53.7813Z"/><path d="M221.0085,31.3421l-25.4362,29.07h50.8724l-25.4362-29.07m0-29.8L289.69,80.0352H152.3274Z"/></g><g id="Polygon_5" data-name="Polygon 5"><path d="M173.95,443.064h94.1173l-47.0587,53.7814Z"/><path d="M221.0085,481.9456l25.4362-29.07H195.5723l25.4362,29.07m0,29.8-68.6811-78.4928H289.69Z"/></g></g></g></g></svg>