<svg id="Layer_1" data-name="Layer 1" xmlns="http://www.w3.org/2000/svg" viewBox="0 0 423 512"><defs><style>.cls-1{isolation:isolate;}</style></defs><g id="Sort_by_Alpha" data-name="Sort by Alpha"><g id="Sort_by_Alpha-2" data-name="Sort by Alpha-2"><g id="Group_139" data-name="Group 139"><g id="AZ" class="cls-1"><g class="cls-1"><path d="M88.28,139.79h51.23L225,374.39H177.33l-22.26-62.53h-88L44.47,374.39H0Zm54.41,135L112,187.83,80.16,274.76Z"/><path d="M240.5,339.76,368.39,177.58H243.68V139.79H422.82V174.4L293.14,336.58h130v37.81H240.5Z"/></g></g><g id="Polygon_4" data-name="Polygon 4"><path d="M268.07,70.22H174L221,16.44Z"/><path d="M221,31.34,195.57,60.41h50.87L221,31.34m0-29.8L289.69,80H152.33Z"/></g><g id="Polygon_5" data-name="Polygon 5"><path d="M174,443.06h94.12L221,496.85Z"/><path d="M221,482l25.43-29.07H195.57L221,482m0,29.8-68.68-78.5H289.69Z"/></g></g></g></g></svg>