<svg id="search" data-name="Search" xmlns="http://www.w3.org/2000/svg" viewBox="0 0 514.55 513.72"><path id="Path_118" data-name="Path 118" d="M514.16,469.65A44.3,44.3,0,0,0,510.94,453a43.59,43.59,0,0,0-9.63-14.55l-120-120-2.9-2.84,2.1-3.43A206.91,206.91,0,0,0,409.2,182a203.89,203.89,0,0,0-18.28-64.84,201.81,201.81,0,0,0-40.28-56.84h0a203.7,203.7,0,0,0-106-56,208,208,0,0,0-78.56,0A203.7,203.7,0,0,0,15.41,128.17a207.18,207.18,0,0,0,0,154.61A202.92,202.92,0,0,0,166,406.4a208,208,0,0,0,146.73-26.31l3.45-2.1,2.85,2.84,120,120a43.31,43.31,0,0,0,14.53,9.65,44.63,44.63,0,0,0,33.24,0,43.87,43.87,0,0,0,27.4-40.84ZM314.28,313.8a153.94,153.94,0,1,1,0-217.73A153.93,153.93,0,0,1,314.28,313.8Z"/></svg>