<svg id="Layer_1" data-name="Layer 1" xmlns="http://www.w3.org/2000/svg" width="540" height="512" viewBox="0 0 540 512"><defs><style>.cls-1{fill:none;}</style></defs><g id="Rectangle_148" data-name="Rectangle 148"><rect class="cls-1" x="98.3675" width="441.3633" height="441.3633" rx="81.916"/><path d="M457.8056.0051H180.2792A82.0187,82.0187,0,0,0,99.2128,70.2119h41.8237a41.0336,41.0336,0,0,1,39.2427-29.2488H457.8056a41.0113,41.0113,0,0,1,40.958,40.958V359.4475a41.0112,41.0112,0,0,1-40.958,40.958H443.0131v29.2537a82.5261,82.5261,0,0,1-.8457,11.7043h15.6382a81.9971,81.9971,0,0,0,81.916-81.916V81.9211A81.9971,81.9971,0,0,0,457.8056.0051Z"/></g><g id="Rectangle_147" data-name="Rectangle 147"><path d="M360.71,512H83.1639A81.997,81.997,0,0,1,1.248,430.084V152.5576A81.997,81.997,0,0,1,83.1639,70.6417H360.71a81.997,81.997,0,0,1,81.916,81.9159V430.084A81.997,81.997,0,0,1,360.71,512ZM83.1639,111.6a41.0113,41.0113,0,0,0-40.958,40.9579V430.084a41.0114,41.0114,0,0,0,40.958,40.958H360.71a41.0114,41.0114,0,0,0,40.958-40.958V152.5576A41.0113,41.0113,0,0,0,360.71,111.6Z"/></g><g id="noun_tick_3697851" data-name="noun tick 3697851"><g id="Group_140" data-name="Group 140"><g id="Path_163" data-name="Path 163"><path d="M193.1852,377.817a14.3354,14.3354,0,0,1-9.8913-4.0958l-51.0746-51.8938a13.9872,13.9872,0,0,1,20.1923-19.3527l39.1353,40.3642L293.6962,206.92A14.13,14.13,0,0,1,316.63,223.4335q-.1389.193-.2845.3814L204.7149,372.1034a14.6019,14.6019,0,0,1-10.2395,5.7751Z"/><path d="M194.9984,382.9863l-1.88-.04a19.4069,19.4069,0,0,1-13.3993-5.56l-51.1375-51.9574A19.11,19.11,0,0,1,156.04,298.8505l34.9982,36.1382,98.5552-131.1536a19.2559,19.2559,0,0,1,31.1985,22.5789L208.8178,375.1867A19.9409,19.9409,0,0,1,194.9984,382.9863ZM142.541,303.47a8.8694,8.8694,0,0,0-6.56,14.8793l50.9575,51.7775a9.1383,9.1383,0,0,0,6.3,2.58l1.48.06a9.5738,9.5738,0,0,0,5.9-3.74L312.2527,220.7343a9.0256,9.0256,0,0,0,1.8-7,9.007,9.007,0,0,0-16.1992-3.82L192.0386,350.7079,148.7407,306.03A8.7346,8.7346,0,0,0,142.541,303.47Z"/></g></g></g></svg>