<svg id="Layer_1" data-name="Layer 1" xmlns="http://www.w3.org/2000/svg" viewBox="0 0 540 512"><defs><style>.cls-1{fill:none;}.cls-2{fill:#fff;}</style></defs><g id="Rectangle_148" data-name="Rectangle 148"><rect class="cls-1" x="98.37" width="441.36" height="441.36" rx="81.92"/><path d="M457.81,441.36H180.28a82,82,0,0,1-81.92-81.91V81.92A82,82,0,0,1,180.28,0H457.81a82,82,0,0,1,81.91,81.91V359.45A82,82,0,0,1,457.81,441.36ZM180.28,41a41,41,0,0,0-41,41V359.45a41,41,0,0,0,41,41H457.81a41,41,0,0,0,40.95-41V81.92a41,41,0,0,0-40.95-41Z"/></g><g id="Rectangle_147" data-name="Rectangle 147"><rect class="cls-2" x="1.26" y="70.63" width="441.36" height="441.36" rx="81.92"/><path d="M360.71,512H83.16A82,82,0,0,1,1.25,430.08V152.56A82,82,0,0,1,83.16,70.64H360.71a82,82,0,0,1,81.92,81.92V430.08A82,82,0,0,1,360.71,512ZM83.16,111.6a41,41,0,0,0-40.95,41V430.08a41,41,0,0,0,40.95,41H360.71a41,41,0,0,0,41-41V152.56a41,41,0,0,0-41-41Z"/></g><g id="noun_tick_3697851" data-name="noun tick 3697851"><g id="Group_140" data-name="Group 140"><g id="Path_163" data-name="Path 163"><path d="M193.19,377.82a14.38,14.38,0,0,1-9.9-4.1l-51.07-51.89a14,14,0,0,1,20.19-19.36l39.14,40.37L293.7,206.92a14.13,14.13,0,0,1,22.93,16.51l-.28.38L204.71,372.1a14.58,14.58,0,0,1-10.23,5.78Z"/><path d="M195,383l-1.88,0a19.41,19.41,0,0,1-13.4-5.56l-51.14-52A19.11,19.11,0,0,1,156,298.85L191,335l98.55-131.15a19.25,19.25,0,0,1,31.2,22.57l-112,148.78A19.94,19.94,0,0,1,195,383Zm-52.46-79.52A8.87,8.87,0,0,0,136,318.35l51,51.78a9.14,9.14,0,0,0,6.3,2.58l1.48.06a9.57,9.57,0,0,0,5.9-3.74l111.63-148.3a9,9,0,0,0,1.8-7,9,9,0,0,0-16.2-3.82L192,350.71,148.74,306A8.73,8.73,0,0,0,142.54,303.47Z"/></g></g></g></svg>