<svg id="Layer_1" data-name="Layer 1" xmlns="http://www.w3.org/2000/svg" viewBox="0 0 540 512"><defs><style>.cls-1{fill:none;}.cls-2{stroke:#000;stroke-miterlimit:10;stroke-width:5px;}</style></defs><g id="Rectangle_150" data-name="Rectangle 150"><rect class="cls-1" x="97.92" width="441.36" height="441.36" rx="81.92"/></g><g id="Rectangle_149" data-name="Rectangle 149"><path d="M360.25,512H82.73A82,82,0,0,1,.81,430.08V152.55A82,82,0,0,1,82.73,70.64H360.25a82,82,0,0,1,81.92,81.91V430.08A82,82,0,0,1,360.25,512ZM82.73,111.59a41,41,0,0,0-41,41V430.08a41,41,0,0,0,41,41H360.25a41,41,0,0,0,41-41V152.55a41,41,0,0,0-41-41Z"/></g><path d="M457.27.21H179.74A82,82,0,0,0,98.67,70.42H140.5a41,41,0,0,1,39.24-29.25H457.27a41,41,0,0,1,41,41V359.66a41,41,0,0,1-41,40.95h-14.8v29.26a83.59,83.59,0,0,1-.84,11.7h15.64a82,82,0,0,0,81.91-81.91V82.13A82,82,0,0,0,457.27.21Z"/><path class="cls-2" d="M216.57,348.5a14.43,14.43,0,0,1-14.68-16.79,67.54,67.54,0,0,1,3.17-13.55q4-11.13,16.49-24.69l21.17-21.79q13.58-15.31,13.58-32.9,0-16.93-8.89-26.53t-25.86-9.6q-16.49,0-26.51,8.73a28.06,28.06,0,0,0-8.51,12.9,14.88,14.88,0,0,1-14.16,10.54h0c-11.49,0-17.76-8.86-14-19.71a52.63,52.63,0,0,1,15.4-22.56q18.33-16.08,47.76-16.08,30.55,0,47.6,16.38t17.05,44.94q0,28.25-26.18,55.68l-17.22,17c-.27.27-.53.53-.77.82q-8.24,9.39-10.54,24.55a15.33,15.33,0,0,1-14.64,12.63Zm-17.16,51.35a17.83,17.83,0,0,1,4.44-12.32q4.44-5,13.17-5t13.26,5a17.66,17.66,0,0,1,4.52,12.32A17.05,17.05,0,0,1,230.28,412q-4.53,4.81-13.26,4.82T203.85,412A17.21,17.21,0,0,1,199.41,399.85Z"/></svg>