<svg id="Layer_1" data-name="Layer 1" xmlns="http://www.w3.org/2000/svg" viewBox="0 0 512 512"><defs><style>.cls-1{fill:none;}.cls-2{isolation:isolate;}</style></defs><g id="Small_Image_Grid_button_" data-name="Small Image Grid button "><g id="Rectangle_127" data-name="Rectangle 127"><rect class="cls-1" x="0.37" y="-1.25" width="513.25" height="513.25" rx="82.12"/><path d="M.37,429.87v-349A82.21,82.21,0,0,1,82.49-1.25h349a82.22,82.22,0,0,1,82.12,82.12v349A82.22,82.22,0,0,1,431.5,512h-349A82.21,82.21,0,0,1,.37,429.87Zm464-349A32.87,32.87,0,0,0,431.5,48h-349A32.87,32.87,0,0,0,49.65,80.87v349a32.87,32.87,0,0,0,32.84,32.84h349a32.87,32.87,0,0,0,32.83-32.84Z"/></g><g id="S" class="cls-2"><g class="cls-2"><path d="M160.94,310.46h39.91c7.4,36.21,26.61,49.89,64.32,49.89,33.26,0,52.51-15.52,52.51-41.39,0-24.41-29.21-31-64.7-37.69-40.68-8.14-83.9-21.45-83.9-68.76,0-42.51,35.84-73.58,86.13-73.58,55,0,90.92,27,98.32,82.08H314c-5.17-35.85-25.5-49.52-59.15-49.52-30.31,0-49.15,15.51-49.15,39.17,0,26.22,32.15,31.4,67.26,38.05,40.3,7.78,81.7,20.33,81.7,68.41,0,44.71-32.9,75.78-88.36,75.78C203.8,392.9,170.54,363.67,160.94,310.46Z"/></g></g></g></svg>